# xmcd CD database file
#
# Track frame offsets:
#	150
#	3737
#	16905
#	39007
#	55487
#	73907
#	97302
#	115865
#	129290
#	153765
#	177800
#	196450
#	216915
#	233495
#	245607
#	296525
#
# Disc length: 4295 seconds
#
# Revision: 1
# Processed by: cddbd v1.5.2PL0 Copyright (c) Steve Scherf et al.
# Submitted via: CDex 1.51
#
DISCID=dc10c510
DTITLE=Vol. 1995 -  - Vol. 195 - In Moscow 1962
DYEAR=1964
DGENRE=Jazz
TTITLE0=Let's dance
TTITLE1=Mission to Moscow
TTITLE2=Meet the band
TTITLE3=I got it band and that ain't good
TTITLE4=Why you ?
TTITLE5=Titter Pipes
TTITLE6=Stealin' apples
TTITLE7=Feathers
TTITLE8=One o'clock jump
TTITLE9=Bye bye black bird
TTITLE10=Swift as the wind
TTITLE11=Fontainebleau
TTITLE12=Meadowland
TTITLE13=Goodbye
TTITLE14=Quintet Medley: Avalon, Body and Soul, Rose room, The world is waiting for the sunrise
TTITLE15=On the Alamo
EXTD=YEAR: 1964
EXTT0=F.M. Baldridge - G. Stone - J. Bonime
EXTT1=M. Powell
EXTT2=R. Prince
EXTT3=D. Ellington - P.F. Webster
EXTT4=J. Bunch
EXTT5=T. Newson
EXTT6=F. Waller - A. Razaf
EXTT7=J. Bunch
EXTT8=C. Basie
EXTT9=R. Henderson - M. Dixon
EXTT10=T. Dameron
EXTT11=T. Dameron
EXTT12=arr. B. Goodman
EXTT13=G. Jenkins
EXTT14=
EXTT15=G. Kahn - I. Jones
PLAYORDER=
